<svg xmlns="http://www.w3.org/2000/svg" viewBox="0 0 190.5 186.29"><defs><style>.cls-1{fill:#1a98d5;}.cls-2{fill:#fff;}.cls-3{fill:#48acdf;}</style></defs><title>Recurso 2</title><g id="Capa_2" data-name="Capa 2"><g id="Capa_1-2" data-name="Capa 1"><path class="cls-1" d="M95.19,186.08c-30.43,0-60.87-.13-91.31.21C1,186.32,0,184.33,0,174q.27-81,0-162.09C0,3.37.5,0,3.44,0Q95.21.45,187,0c2.73,0,3.55,2.33,3.53,11.46q-.18,82,0,164.06c0,9-.86,10.65-3.39,10.62-30.64-.27-61.28-.18-91.92-.18Z"/><path class="cls-2" d="M96.38,11.44c24.72,0,49.44.22,74.16-.15,7.05-.1,9.81,1.45,9.76,9.14q-.5,72.71,0,145.4c0,7.57-2.49,9.34-9.65,9.28-37.53-.3-75.06-.13-112.59-.13-13.06,0-26.12-.18-39.18.06-5.49.1-7.51-1.83-7.49-7.39q.22-74.18,0-148.34c0-6.93,2.93-8,8.89-8C45.62,11.57,71,11.44,96.38,11.44Z"/><path class="cls-3" d="M98.56,121.72c9.84-19.55,18.79-37.34,27.75-55.13,1.17-2.34,2.35-4.68,3.57-7,1-1.87,2.48-3.4,4.69-2.54,2.61,1,1.68,3.19.79,4.91q-17,33.18-34.18,66.31c-1.94,3.74-4,2.81-5.52-.23Q78.89,95.29,62.24,62.46c-.89-1.76-2-4.12.22-5.17,2.63-1.23,4.19,1.17,5.25,3.22q9,17.45,17.88,35C89.7,103.62,93.68,111.83,98.56,121.72Z"/></g></g></svg>